<svg width="91" height="72" viewBox="0 0 91 72" fill="none" xmlns="http://www.w3.org/2000/svg">
<path d="M90.75 35.75C87.75 35.75 82.113 39.1601 80.75 44.25L81.75 35.75H90.75Z" fill="#EAECFF"/>
<path d="M45.75 72C65.6323 72 81.75 55.8823 81.75 36H9.75C9.75 55.8823 25.8677 72 45.75 72Z" fill="#EAECFF"/>
<rect x="13.75" y="4" width="64" height="64" rx="32" fill="#DE6000"/>
<path d="M43.2885 38.4616H30.9808C30.2833 38.4616 29.6991 38.2253 29.2282 37.7527C28.7572 37.2801 28.5209 36.6959 28.5192 36.0001C28.5176 35.3043 28.7539 34.7201 29.2282 34.2474C29.7024 33.7748 30.2866 33.5385 30.9808 33.5385H43.2885V21.2308C43.2885 20.5334 43.5248 19.9492 43.9974 19.4782C44.47 19.0072 45.0542 18.7709 45.75 18.7693C46.4458 18.7677 47.0308 19.004 47.5051 19.4782C47.9793 19.9525 48.2148 20.5367 48.2115 21.2308V33.5385H60.5192C61.2167 33.5385 61.8017 33.7748 62.2743 34.2474C62.7469 34.7201 62.9824 35.3043 62.9808 36.0001C62.9791 36.6959 62.7428 37.2809 62.2718 37.7551C61.8009 38.2294 61.2167 38.4649 60.5192 38.4616H48.2115V50.7693C48.2115 51.4667 47.9752 52.0517 47.5026 52.5244C47.03 52.997 46.4458 53.2325 45.75 53.2308C45.0542 53.2292 44.47 52.9929 43.9974 52.5219C43.5248 52.0509 43.2885 51.4667 43.2885 50.7693V38.4616Z" fill="white"/>
<path d="M0.75 35.75C3.75 35.75 9.387 39.1601 10.75 44.25L9.75 35.75H0.75Z" fill="#EAECFF"/>
</svg>
