<svg width="49" height="48" viewBox="0 0 49 48" fill="none" xmlns="http://www.w3.org/2000/svg">
<path d="M23.25 10.6667C23.25 10.4015 23.3554 10.1472 23.5429 9.95964C23.7304 9.7721 23.9848 9.66675 24.25 9.66675C32.166 9.66675 38.5833 16.0841 38.5833 24.0001C38.5833 31.9161 32.166 38.3334 24.25 38.3334C16.334 38.3334 9.91667 31.9161 9.91667 24.0001C9.91443 22.0933 10.2937 20.2054 11.0322 18.4475C11.7707 16.6896 12.8534 15.0972 14.2167 13.7641C14.31 13.67 14.421 13.5953 14.5434 13.5445C14.6658 13.4937 14.7971 13.4677 14.9296 13.4681C15.0621 13.4685 15.1933 13.4952 15.3154 13.5466C15.4375 13.5981 15.5482 13.6734 15.6409 13.768C15.7337 13.8626 15.8068 13.9748 15.8558 14.0979C15.9049 14.221 15.929 14.3526 15.9267 14.4851C15.9245 14.6176 15.8959 14.7484 15.8427 14.8697C15.7894 14.9911 15.7126 15.1007 15.6167 15.1921C14.4433 16.339 13.5115 17.7092 12.876 19.222C12.2406 20.7347 11.9144 22.3593 11.9167 24.0001C11.9167 26.4394 12.64 28.8239 13.9952 30.8521C15.3504 32.8803 17.2766 34.4611 19.5302 35.3946C21.7839 36.3281 24.2637 36.5723 26.6561 36.0964C29.0485 35.6205 31.2461 34.4459 32.971 32.7211C34.6958 30.9962 35.8705 28.7986 36.3464 26.4062C36.8222 24.0138 36.578 21.5339 35.6445 19.2803C34.711 17.0267 33.1302 15.1005 31.102 13.7453C29.0738 12.3901 26.6893 11.6667 24.25 11.6667C23.9848 11.6667 23.7304 11.5614 23.5429 11.3739C23.3554 11.1863 23.25 10.932 23.25 10.6667Z" fill="white"/>
<path d="M23.25 14.6667C23.25 14.4015 23.3554 14.1472 23.5429 13.9596C23.7304 13.7721 23.9848 13.6667 24.25 13.6667C26.2937 13.6667 28.2916 14.2728 29.9909 15.4082C31.6902 16.5437 33.0147 18.1575 33.7968 20.0457C34.5789 21.9339 34.7835 24.0115 34.3848 26.016C33.9861 28.0205 33.0019 29.8617 31.5568 31.3069C30.1116 32.752 28.2704 33.7361 26.2659 34.1349C24.2615 34.5336 22.1838 34.3289 20.2956 33.5468C18.4074 32.7647 16.7936 31.4403 15.6582 29.741C14.5227 28.0417 13.9167 26.0438 13.9167 24.0001C13.9167 23.7349 14.022 23.4805 14.2096 23.293C14.3971 23.1054 14.6515 23.0001 14.9167 23.0001C15.1819 23.0001 15.4362 23.1054 15.6238 23.293C15.8113 23.4805 15.9167 23.7349 15.9167 24.0001C15.9167 25.6483 16.4054 27.2594 17.3211 28.6298C18.2368 30.0002 19.5383 31.0683 21.061 31.6991C22.5837 32.3298 24.2592 32.4948 25.8758 32.1733C27.4923 31.8517 28.9771 31.0581 30.1426 29.8926C31.308 28.7272 32.1017 27.2423 32.4232 25.6258C32.7448 24.0093 32.5797 22.3338 31.949 20.8111C31.3183 19.2883 30.2502 17.9868 28.8798 17.0712C27.5093 16.1555 25.8982 15.6667 24.25 15.6667C23.9848 15.6667 23.7304 15.5614 23.5429 15.3739C23.3554 15.1863 23.25 14.932 23.25 14.6667Z" fill="white"/>
<path d="M24.25 17.6667C23.9848 17.6667 23.7304 17.7721 23.5429 17.9596C23.3554 18.1472 23.25 18.4015 23.25 18.6667C23.25 18.932 23.3554 19.1863 23.5429 19.3739C23.7304 19.5614 23.9848 19.6667 24.25 19.6667C25.3993 19.6667 26.5015 20.1233 27.3141 20.936C28.1268 21.7486 28.5833 22.8508 28.5833 24.0001C28.5833 25.1494 28.1268 26.2516 27.3141 27.0642C26.5015 27.8769 25.3993 28.3334 24.25 28.3334C23.9848 28.3334 23.7304 28.4388 23.5429 28.6263C23.3554 28.8138 23.25 29.0682 23.25 29.3334C23.25 29.5986 23.3554 29.853 23.5429 30.0405C23.7304 30.2281 23.9848 30.3334 24.25 30.3334C25.9297 30.3334 27.5406 29.6662 28.7283 28.4784C29.9161 27.2907 30.5833 25.6798 30.5833 24.0001C30.5833 22.3204 29.9161 20.7095 28.7283 19.5217C27.5406 18.334 25.9297 17.6667 24.25 17.6667Z" fill="white"/>
</svg>
