<svg width="91" height="72" viewBox="0 0 91 72" fill="none" xmlns="http://www.w3.org/2000/svg">
<path d="M90.25 35.75C87.25 35.75 81.613 39.1601 80.25 44.25L81.25 35.75H90.25Z" fill="#020233"/>
<path d="M45.25 72C65.1323 72 81.25 55.8823 81.25 36H9.25C9.25 55.8823 25.3677 72 45.25 72Z" fill="#020233"/>
<rect x="13.25" y="4" width="64" height="64" rx="32" fill="white"/>
<path d="M42.7885 38.4616H30.4808C29.7833 38.4616 29.1991 38.2253 28.7282 37.7527C28.2572 37.2801 28.0209 36.6959 28.0192 36.0001C28.0176 35.3043 28.2539 34.7201 28.7282 34.2474C29.2024 33.7748 29.7866 33.5385 30.4808 33.5385H42.7885V21.2308C42.7885 20.5334 43.0248 19.9492 43.4974 19.4782C43.97 19.0072 44.5542 18.7709 45.25 18.7693C45.9458 18.7677 46.5308 19.004 47.0051 19.4782C47.4793 19.9525 47.7148 20.5367 47.7115 21.2308V33.5385H60.0192C60.7167 33.5385 61.3017 33.7748 61.7743 34.2474C62.2469 34.7201 62.4824 35.3043 62.4808 36.0001C62.4791 36.6959 62.2428 37.2809 61.7718 37.7551C61.3009 38.2294 60.7167 38.4649 60.0192 38.4616H47.7115V50.7693C47.7115 51.4667 47.4752 52.0517 47.0026 52.5244C46.53 52.997 45.9458 53.2325 45.25 53.2308C44.5542 53.2292 43.97 52.9929 43.4974 52.5219C43.0248 52.0509 42.7885 51.4667 42.7885 50.7693V38.4616Z" fill="#0600B0"/>
<path d="M0.25 35.75C3.25 35.75 8.887 39.1601 10.25 44.25L9.25 35.75H0.25Z" fill="#020233"/>
</svg>
