<svg width="131" height="130" viewBox="0 0 131 130" fill="none" xmlns="http://www.w3.org/2000/svg">
<rect x="5.24829" y="5" width="120" height="120" rx="60" fill="#D92404" fill-opacity="0.2"/>
<rect x="2.74829" y="2.5" width="125" height="125" rx="62.5" stroke="#D92404" stroke-opacity="0.05" stroke-width="5"/>
<rect x="35.2483" y="35" width="60" height="60" rx="30" fill="#D92404"/>
<path d="M65.2483 67.7681L55.5601 77.4563C55.1976 77.8188 54.7363 78 54.176 78C53.6158 78 53.1545 77.8188 52.792 77.4563C52.4295 77.0938 52.2483 76.6324 52.2483 76.0722C52.2483 75.512 52.4295 75.0507 52.792 74.6882L62.4802 65L52.792 55.3118C52.4295 54.9493 52.2483 54.488 52.2483 53.9278C52.2483 53.3676 52.4295 52.9062 52.792 52.5437C53.1545 52.1812 53.6158 52 54.176 52C54.7363 52 55.1976 52.1812 55.5601 52.5437L65.2483 62.2319L74.9365 52.5437C75.299 52.1812 75.7603 52 76.3205 52C76.8807 52 77.3421 52.1812 77.7046 52.5437C78.067 52.9062 78.2483 53.3676 78.2483 53.9278C78.2483 54.488 78.067 54.9493 77.7046 55.3118L68.0163 65L77.7046 74.6882C78.067 75.0507 78.2483 75.512 78.2483 76.0722C78.2483 76.6324 78.067 77.0938 77.7046 77.4563C77.3421 77.8188 76.8807 78 76.3205 78C75.7603 78 75.299 77.8188 74.9365 77.4563L65.2483 67.7681Z" fill="white"/>
</svg>
