<svg width="131" height="130" viewBox="0 0 131 130" fill="none" xmlns="http://www.w3.org/2000/svg">
<rect x="5.24829" y="5" width="120" height="120" rx="60" fill="#07AA75" fill-opacity="0.2"/>
<rect x="2.74829" y="2.5" width="125" height="125" rx="62.5" stroke="#07AA75" stroke-opacity="0.05" stroke-width="5"/>
<rect x="35.2483" y="35" width="60" height="60" rx="30" fill="#07AA75"/>
<path d="M61.0529 71.229L53.8039 63.98C53.4133 63.5893 52.8835 63.3699 52.3311 63.3699C51.7787 63.3699 51.2489 63.5893 50.8583 63.98C50.4677 64.3706 50.2483 64.9003 50.2483 65.4527C50.2483 65.7263 50.3022 65.9971 50.4068 66.2498C50.5115 66.5025 50.6649 66.7321 50.8583 66.9255L59.5906 75.6577C60.4053 76.4725 61.7214 76.4725 62.5361 75.6577L84.6382 53.5556C85.0289 53.165 85.2483 52.6352 85.2483 52.0828C85.2483 51.5304 85.0289 51.0007 84.6382 50.61C84.2476 50.2194 83.7179 50 83.1655 50C82.6131 50 82.0833 50.2194 81.6927 50.61L61.0529 71.229Z" fill="white"/>
</svg>
