<svg width="131" height="130" viewBox="0 0 131 130" fill="none" xmlns="http://www.w3.org/2000/svg">
<rect x="5.24829" y="5" width="120" height="120" rx="60" fill="#D96004" fill-opacity="0.2"/>
<rect x="2.74829" y="2.5" width="125" height="125" rx="62.5" stroke="#D96004" stroke-opacity="0.05" stroke-width="5"/>
<rect x="35.2483" y="35" width="60" height="60" rx="30" fill="#D96004"/>
<path d="M65.2483 52C61.1551 52 57.8197 55.3354 57.8197 59.4286C57.8197 59.798 57.9664 60.1523 58.2277 60.4135C58.4889 60.6747 58.8432 60.8214 59.2126 60.8214C59.582 60.8214 59.9362 60.6747 60.1975 60.4135C60.4587 60.1523 60.6054 59.798 60.6054 59.4286C60.6054 56.8731 62.6928 54.7857 65.2483 54.7857C67.8037 54.7857 69.8911 56.8731 69.8911 59.4286C69.8911 60.5373 69.6014 61.2393 69.2077 61.7871C68.7768 62.3907 68.1918 62.8643 67.4081 63.4957L67.3896 63.5106C66.6467 64.1104 65.7311 64.8551 65.031 65.9026C64.3048 66.9946 63.8554 68.341 63.8554 70.1071V71.0357C63.8554 71.4051 64.0022 71.7594 64.2634 72.0206C64.5246 72.2818 64.8789 72.4286 65.2483 72.4286C65.6177 72.4286 65.972 72.2818 66.2332 72.0206C66.4944 71.7594 66.6411 71.4051 66.6411 71.0357V70.1071C66.6411 68.8554 66.9457 68.055 67.3506 67.4477C67.7833 66.7996 68.3757 66.2963 69.1408 65.6779L69.2671 65.5757C69.9617 65.0149 70.816 64.3277 71.4734 63.4084C72.2126 62.3777 72.6768 61.1056 72.6768 59.4286C72.6768 55.3354 69.3414 52 65.2483 52ZM65.2483 78C65.7408 78 66.2132 77.8043 66.5615 77.4561C66.9098 77.1078 67.1054 76.6354 67.1054 76.1429C67.1054 75.6503 66.9098 75.1779 66.5615 74.8297C66.2132 74.4814 65.7408 74.2857 65.2483 74.2857C64.7557 74.2857 64.2834 74.4814 63.9351 74.8297C63.5868 75.1779 63.3911 75.6503 63.3911 76.1429C63.3911 76.6354 63.5868 77.1078 63.9351 77.4561C64.2834 77.8043 64.7557 78 65.2483 78Z" fill="white"/>
</svg>
