<svg width="33" height="32" viewBox="0 0 33 32" fill="none" xmlns="http://www.w3.org/2000/svg">
<path d="M16.8498 3.66675C19.2429 3.66675 21.1836 5.60667 21.1837 7.99976C21.1837 10.393 19.243 12.3337 16.8498 12.3337C14.4567 12.3336 12.5168 10.3929 12.5168 7.99976C12.5169 5.60678 14.4568 3.66692 16.8498 3.66675Z" stroke="white" stroke-width="2"/>
<path d="M16.8504 18.3333C19.6564 18.3333 22.1476 18.9752 23.9022 19.9622C25.6883 20.9668 26.5164 22.1984 26.5164 23.3333C26.5164 25.0768 26.4627 26.0581 25.5516 26.8C25.0575 27.2024 24.2318 27.5949 22.8182 27.8811C21.409 28.1664 19.4825 28.3332 16.8504 28.3333C14.2181 28.3333 12.2909 28.1664 10.8817 27.8811C9.46815 27.5949 8.6423 27.2024 8.14828 26.8C7.23735 26.0581 7.18344 25.0767 7.18344 23.3333C7.18344 22.1984 8.01176 20.9668 9.7977 19.9622C11.5524 18.9751 14.0444 18.3333 16.8504 18.3333Z" stroke="white" stroke-width="2"/>
</svg>
