<svg width="33" height="33" viewBox="0 0 33 33" fill="none" xmlns="http://www.w3.org/2000/svg">
<path d="M15.25 3.16675C15.25 2.90153 15.3554 2.64718 15.5429 2.45964C15.7304 2.2721 15.9848 2.16675 16.25 2.16675C24.166 2.16675 30.5833 8.58408 30.5833 16.5001C30.5833 24.4161 24.166 30.8334 16.25 30.8334C8.334 30.8334 1.91667 24.4161 1.91667 16.5001C1.91443 14.5933 2.29372 12.7054 3.0322 10.9475C3.77068 9.18959 4.85342 7.59719 6.21667 6.26408C6.30996 6.16996 6.42104 6.09533 6.54343 6.04451C6.66583 5.9937 6.7971 5.96772 6.92962 5.96809C7.06215 5.96845 7.19328 5.99515 7.31539 6.04664C7.4375 6.09813 7.54816 6.17338 7.64094 6.26801C7.73371 6.36264 7.80676 6.47477 7.85582 6.59788C7.90488 6.72099 7.92898 6.85262 7.92672 6.98512C7.92446 7.11763 7.89589 7.24836 7.84266 7.36973C7.78943 7.49109 7.71261 7.60067 7.61667 7.69208C6.44335 8.83902 5.5115 10.2092 4.87605 11.722C4.24059 13.2347 3.91439 14.8593 3.91667 16.5001C3.91667 18.9394 4.64 21.3239 5.99521 23.3521C7.35041 25.3803 9.27662 26.9611 11.5302 27.8946C13.7839 28.8281 16.2637 29.0723 18.6561 28.5964C21.0485 28.1205 23.2461 26.9459 24.971 25.2211C26.6958 23.4962 27.8705 21.2986 28.3464 18.9062C28.8222 16.5138 28.578 14.0339 27.6445 11.7803C26.711 9.5267 25.1302 7.60049 23.102 6.24529C21.0738 4.89009 18.6893 4.16675 16.25 4.16675C15.9848 4.16675 15.7304 4.06139 15.5429 3.87385C15.3554 3.68632 15.25 3.43196 15.25 3.16675Z" fill="#0600B0"/>
<path d="M15.25 7.16675C15.25 6.90153 15.3554 6.64718 15.5429 6.45964C15.7304 6.2721 15.9848 6.16675 16.25 6.16675C18.2937 6.16675 20.2916 6.77279 21.9909 7.90823C23.6902 9.04367 25.0147 10.6575 25.7968 12.5457C26.5789 14.4339 26.7835 16.5115 26.3848 18.516C25.9861 20.5205 25.0019 22.3617 23.5568 23.8069C22.1116 25.252 20.2704 26.2361 18.2659 26.6349C16.2615 27.0336 14.1838 26.8289 12.2956 26.0468C10.4074 25.2647 8.79359 23.9403 7.65815 22.241C6.52271 20.5417 5.91667 18.5438 5.91667 16.5001C5.91667 16.2349 6.02203 15.9805 6.20956 15.793C6.3971 15.6054 6.65146 15.5001 6.91667 15.5001C7.18189 15.5001 7.43624 15.6054 7.62378 15.793C7.81132 15.9805 7.91667 16.2349 7.91667 16.5001C7.91667 18.1483 8.40541 19.7594 9.32109 21.1298C10.2368 22.5002 11.5383 23.5683 13.061 24.1991C14.5837 24.8298 16.2592 24.9948 17.8758 24.6733C19.4923 24.3517 20.9771 23.5581 22.1426 22.3926C23.308 21.2272 24.1017 19.7423 24.4232 18.1258C24.7448 16.5093 24.5797 14.8338 23.949 13.3111C23.3183 11.7883 22.2502 10.4868 20.8798 9.57117C19.5093 8.65549 17.8982 8.16675 16.25 8.16675C15.9848 8.16675 15.7304 8.06139 15.5429 7.87385C15.3554 7.68632 15.25 7.43196 15.25 7.16675Z" fill="#0600B0"/>
<path d="M16.25 10.1667C15.9848 10.1667 15.7304 10.2721 15.5429 10.4596C15.3554 10.6472 15.25 10.9015 15.25 11.1667C15.25 11.432 15.3554 11.6863 15.5429 11.8739C15.7304 12.0614 15.9848 12.1667 16.25 12.1667C17.3993 12.1667 18.5015 12.6233 19.3141 13.436C20.1268 14.2486 20.5833 15.3508 20.5833 16.5001C20.5833 17.6494 20.1268 18.7516 19.3141 19.5642C18.5015 20.3769 17.3993 20.8334 16.25 20.8334C15.9848 20.8334 15.7304 20.9388 15.5429 21.1263C15.3554 21.3138 15.25 21.5682 15.25 21.8334C15.25 22.0986 15.3554 22.353 15.5429 22.5405C15.7304 22.7281 15.9848 22.8334 16.25 22.8334C17.9297 22.8334 19.5406 22.1662 20.7283 20.9784C21.9161 19.7907 22.5833 18.1798 22.5833 16.5001C22.5833 14.8204 21.9161 13.2095 20.7283 12.0217C19.5406 10.834 17.9297 10.1667 16.25 10.1667Z" fill="#0600B0"/>
</svg>
