<svg width="33" height="32" viewBox="0 0 33 32" fill="none" xmlns="http://www.w3.org/2000/svg">
<path d="M16.2497 3.66675C18.6428 3.66675 20.5835 5.60667 20.5836 7.99976C20.5836 10.393 18.6429 12.3337 16.2497 12.3337C13.8566 12.3336 11.9167 10.3929 11.9167 7.99976C11.9168 5.60678 13.8567 3.66692 16.2497 3.66675Z" stroke="#0600B0" stroke-width="2"/>
<path d="M16.2503 18.3333C19.0563 18.3333 21.5475 18.9752 23.3021 19.9622C25.0882 20.9668 25.9164 22.1984 25.9164 23.3333C25.9164 25.0768 25.8626 26.0581 24.9515 26.8C24.4575 27.2024 23.6317 27.5949 22.2181 27.8811C20.8089 28.1664 18.8824 28.3332 16.2503 28.3333C13.618 28.3333 11.6908 28.1664 10.2816 27.8811C8.86806 27.5949 8.04221 27.2024 7.54819 26.8C6.63725 26.0581 6.58334 25.0767 6.58334 23.3333C6.58334 22.1984 7.41167 20.9668 9.1976 19.9622C10.9523 18.9751 13.4443 18.3333 16.2503 18.3333Z" stroke="#0600B0" stroke-width="2"/>
</svg>
