<svg width="33" height="32" viewBox="0 0 33 32" fill="none" xmlns="http://www.w3.org/2000/svg">
<path d="M12.1832 8.66667C12.1832 8.48986 12.2535 8.32029 12.3785 8.19526C12.5035 8.07024 12.6731 8 12.8499 8H20.8499C21.0267 8 21.1963 8.07024 21.3213 8.19526C21.4463 8.32029 21.5166 8.48986 21.5166 8.66667C21.5166 8.84348 21.4463 9.01305 21.3213 9.13807C21.1963 9.2631 21.0267 9.33333 20.8499 9.33333H12.8499C12.6731 9.33333 12.5035 9.2631 12.3785 9.13807C12.2535 9.01305 12.1832 8.84348 12.1832 8.66667ZM11.5166 16C11.1629 16 10.8238 16.1405 10.5738 16.3905C10.3237 16.6406 10.1832 16.9797 10.1832 17.3333C10.1832 17.687 10.3237 18.0261 10.5738 18.2761C10.8238 18.5262 11.1629 18.6667 11.5166 18.6667C11.8702 18.6667 12.2093 18.5262 12.4594 18.2761C12.7094 18.0261 12.8499 17.687 12.8499 17.3333C12.8499 16.9797 12.7094 16.6406 12.4594 16.3905C12.2093 16.1405 11.8702 16 11.5166 16ZM22.1832 16C21.8296 16 21.4905 16.1405 21.2404 16.3905C20.9904 16.6406 20.8499 16.9797 20.8499 17.3333C20.8499 17.687 20.9904 18.0261 21.2404 18.2761C21.4905 18.5262 21.8296 18.6667 22.1832 18.6667C22.5369 18.6667 22.876 18.5262 23.126 18.2761C23.3761 18.0261 23.5166 17.687 23.5166 17.3333C23.5166 16.9797 23.3761 16.6406 23.126 16.3905C22.876 16.1405 22.5369 16 22.1832 16ZM15.5166 17.3333C15.5166 16.9797 15.657 16.6406 15.9071 16.3905C16.1571 16.1405 16.4963 16 16.8499 16C17.2035 16 17.5427 16.1405 17.7927 16.3905C18.0428 16.6406 18.1832 16.9797 18.1832 17.3333C18.1832 17.687 18.0428 18.0261 17.7927 18.2761C17.5427 18.5262 17.2035 18.6667 16.8499 18.6667C16.4963 18.6667 16.1571 18.5262 15.9071 18.2761C15.657 18.0261 15.5166 17.687 15.5166 17.3333ZM11.5166 21.3333C11.1629 21.3333 10.8238 21.4738 10.5738 21.7239C10.3237 21.9739 10.1832 22.313 10.1832 22.6667C10.1832 23.0203 10.3237 23.3594 10.5738 23.6095C10.8238 23.8595 11.1629 24 11.5166 24C11.8702 24 12.2093 23.8595 12.4594 23.6095C12.7094 23.3594 12.8499 23.0203 12.8499 22.6667C12.8499 22.313 12.7094 21.9739 12.4594 21.7239C12.2093 21.4738 11.8702 21.3333 11.5166 21.3333ZM15.5166 22.6667C15.5166 22.313 15.657 21.9739 15.9071 21.7239C16.1571 21.4738 16.4963 21.3333 16.8499 21.3333C17.2035 21.3333 17.5427 21.4738 17.7927 21.7239C18.0428 21.9739 18.1832 22.313 18.1832 22.6667C18.1832 23.0203 18.0428 23.3594 17.7927 23.6095C17.5427 23.8595 17.2035 24 16.8499 24C16.4963 24 16.1571 23.8595 15.9071 23.6095C15.657 23.3594 15.5166 23.0203 15.5166 22.6667Z" fill="white"/>
<path d="M19.0139 4H14.6859C13.2192 4 12.0752 4 11.1592 4.07467C10.2286 4.15067 9.47256 4.308 8.79256 4.65333C7.66329 5.22863 6.74519 6.14673 6.1699 7.276C5.82323 7.956 5.66723 8.712 5.59123 9.64267C5.51656 10.56 5.51656 11.7013 5.51656 13.1693V18.8307C5.51656 20.2973 5.51656 21.4413 5.59123 22.3573C5.66723 23.288 5.82456 24.044 6.1699 24.724C6.74519 25.8533 7.66329 26.7714 8.79256 27.3467C9.47256 27.6933 10.2286 27.8493 11.1592 27.9253C12.0766 28 13.2179 28 14.6859 28H19.0139C20.4806 28 21.6246 28 22.5406 27.9253C23.4712 27.8493 24.2272 27.692 24.9072 27.3467C26.0365 26.7714 26.9546 25.8533 27.5299 24.724C27.8766 24.044 28.0326 23.288 28.1086 22.3573C28.1832 21.4413 28.1832 20.2987 28.1832 18.8307V13.1693C28.1832 11.7027 28.1832 10.5587 28.1086 9.64267C28.0326 8.712 27.8752 7.956 27.5299 7.276C26.9546 6.14673 26.0365 5.22863 24.9072 4.65333C24.2272 4.30667 23.4712 4.15067 22.5406 4.07467C21.6232 4 20.4819 4 19.0139 4ZM9.39656 5.84133C9.8579 5.60667 10.4179 5.47333 11.2672 5.404C12.1232 5.33333 13.2126 5.33333 14.7166 5.33333H18.9832C20.4872 5.33333 21.5766 5.33333 22.4312 5.404C23.2806 5.47333 23.8406 5.60667 24.3019 5.84133C25.1803 6.2888 25.8944 7.00293 26.3419 7.88133C26.5766 8.34267 26.7099 8.90267 26.7792 9.752C26.8299 10.3613 26.8446 11.088 26.8486 12H6.8499C6.85523 11.088 6.86856 10.36 6.91923 9.752C6.98856 8.90267 7.1219 8.34267 7.35656 7.88133C7.80403 7.00293 8.51816 6.2888 9.39656 5.84133ZM6.8499 13.3333H26.8499V18.8C26.8499 20.304 26.8499 21.3933 26.7792 22.248C26.7099 23.0973 26.5766 23.6573 26.3419 24.1187C25.8944 24.9971 25.1803 25.7112 24.3019 26.1587C23.8406 26.3933 23.2806 26.5267 22.4326 26.596C21.5766 26.6667 20.4872 26.6667 18.9832 26.6667H14.7166C13.2126 26.6667 12.1232 26.6667 11.2686 26.596C10.4192 26.5267 9.85923 26.3933 9.3979 26.1587C8.5195 25.7112 7.80536 24.9971 7.3579 24.1187C7.12323 23.6573 6.9899 23.0973 6.92056 22.2493C6.8499 21.3933 6.8499 20.304 6.8499 18.8V13.3333Z" fill="white"/>
<path fill-rule="evenodd" clip-rule="evenodd" d="M11.8499 8.66675C11.8499 8.40153 11.9553 8.14718 12.1428 7.95964C12.3303 7.7721 12.5847 7.66675 12.8499 7.66675H20.8499C21.1151 7.66675 21.3695 7.7721 21.557 7.95964C21.7445 8.14718 21.8499 8.40153 21.8499 8.66675C21.8499 8.93196 21.7445 9.18632 21.557 9.37386C21.3695 9.56139 21.1151 9.66675 20.8499 9.66675H12.8499C12.5847 9.66675 12.3303 9.56139 12.1428 9.37386C11.9553 9.18632 11.8499 8.93196 11.8499 8.66675ZM9.8499 17.3334C9.8499 16.8914 10.0255 16.4675 10.3381 16.1549C10.6506 15.8423 11.0745 15.6667 11.5166 15.6667C11.9586 15.6667 12.3825 15.8423 12.6951 16.1549C13.0076 16.4675 13.1832 16.8914 13.1832 17.3334C13.1832 17.7754 13.0076 18.1994 12.6951 18.5119C12.3825 18.8245 11.9586 19.0001 11.5166 19.0001C11.0745 19.0001 10.6506 18.8245 10.3381 18.5119C10.0255 18.1994 9.8499 17.7754 9.8499 17.3334ZM20.5166 17.3334C20.5166 16.8914 20.6922 16.4675 21.0047 16.1549C21.3173 15.8423 21.7412 15.6667 22.1832 15.6667C22.6253 15.6667 23.0492 15.8423 23.3617 16.1549C23.6743 16.4675 23.8499 16.8914 23.8499 17.3334C23.8499 17.7754 23.6743 18.1994 23.3617 18.5119C23.0492 18.8245 22.6253 19.0001 22.1832 19.0001C21.7412 19.0001 21.3173 18.8245 21.0047 18.5119C20.6922 18.1994 20.5166 17.7754 20.5166 17.3334ZM15.1832 17.3334C15.1832 16.8914 15.3588 16.4675 15.6714 16.1549C15.984 15.8423 16.4079 15.6667 16.8499 15.6667C17.2919 15.6667 17.7159 15.8423 18.0284 16.1549C18.341 16.4675 18.5166 16.8914 18.5166 17.3334C18.5166 17.7754 18.341 18.1994 18.0284 18.5119C17.7159 18.8245 17.2919 19.0001 16.8499 19.0001C16.4079 19.0001 15.984 18.8245 15.6714 18.5119C15.3588 18.1994 15.1832 17.7754 15.1832 17.3334ZM9.8499 22.6667C9.8499 22.2247 10.0255 21.8008 10.3381 21.4882C10.6506 21.1757 11.0745 21.0001 11.5166 21.0001C11.9586 21.0001 12.3825 21.1757 12.6951 21.4882C13.0076 21.8008 13.1832 22.2247 13.1832 22.6667C13.1832 23.1088 13.0076 23.5327 12.6951 23.8453C12.3825 24.1578 11.9586 24.3334 11.5166 24.3334C11.0745 24.3334 10.6506 24.1578 10.3381 23.8453C10.0255 23.5327 9.8499 23.1088 9.8499 22.6667ZM15.1832 22.6667C15.1832 22.2247 15.3588 21.8008 15.6714 21.4882C15.984 21.1757 16.4079 21.0001 16.8499 21.0001C17.2919 21.0001 17.7159 21.1757 18.0284 21.4882C18.341 21.8008 18.5166 22.2247 18.5166 22.6667C18.5166 23.1088 18.341 23.5327 18.0284 23.8453C17.7159 24.1578 17.2919 24.3334 16.8499 24.3334C16.4079 24.3334 15.984 24.1578 15.6714 23.8453C15.3588 23.5327 15.1832 23.1088 15.1832 22.6667ZM19.0286 3.66675C20.4832 3.66675 21.6379 3.66675 22.5672 3.74275C23.5192 3.82008 24.3232 3.98275 25.0592 4.35608C26.2508 4.96387 27.2193 5.93331 27.8259 7.12541C28.2006 7.85875 28.3632 8.66408 28.4406 9.61608C28.5166 10.5454 28.5166 11.7001 28.5166 13.1547V18.8454C28.5166 20.3001 28.5166 21.4547 28.4406 22.3841C28.3632 23.3361 28.2006 24.1401 27.8272 24.8761C27.2198 26.0674 26.2508 27.0359 25.0592 27.6427C24.3232 28.0174 23.5192 28.1801 22.5672 28.2574C21.6379 28.3334 20.4832 28.3334 19.0286 28.3334H14.6712C13.2166 28.3334 12.0619 28.3334 11.1326 28.2574C10.1806 28.1801 9.37657 28.0174 8.6419 27.6441C7.45009 27.0369 6.48112 26.0679 5.8739 24.8761C5.49924 24.1401 5.33657 23.3361 5.25924 22.3841C5.18324 21.4547 5.18324 20.3001 5.18324 18.8454V13.1547C5.18324 11.7001 5.18324 10.5454 5.25924 9.61608C5.33657 8.66408 5.49924 7.86008 5.87257 7.12541C6.48013 5.9334 7.44959 4.96441 8.6419 4.35741C9.37523 3.98275 10.1806 3.82008 11.1326 3.74275C12.0619 3.66675 13.2166 3.66675 14.6726 3.66675H19.0286ZM11.2952 5.73608C10.4686 5.80275 9.95524 5.93208 9.54857 6.13875C8.73341 6.55416 8.07065 7.21692 7.65524 8.03208C7.44857 8.43875 7.32057 8.95208 7.25257 9.77875C7.2099 10.2987 7.1939 10.9121 7.1859 11.6667H26.5126C26.5131 11.0368 26.4913 10.4071 26.4472 9.77875C26.3806 8.95208 26.2512 8.43875 26.0446 8.03208C25.6292 7.21692 24.9664 6.55416 24.1512 6.13875C23.7446 5.93208 23.2312 5.80408 22.4046 5.73608C21.5646 5.66808 20.4926 5.66675 18.9832 5.66675H14.7166C13.2059 5.66675 12.1339 5.66675 11.2952 5.73608ZM26.8459 11.6667C26.8466 11.0279 26.8244 10.3893 26.7792 9.75208C26.7099 8.90275 26.5766 8.34275 26.3419 7.88141C25.8944 7.00301 25.1803 6.28888 24.3019 5.84141C23.8406 5.60675 23.2806 5.47341 22.4326 5.40408C21.5766 5.33341 20.4872 5.33341 18.9832 5.33341H14.7166C13.2126 5.33341 12.1232 5.33341 11.2686 5.40408C10.4192 5.47341 9.85923 5.60675 9.3979 5.84141C8.5195 6.28888 7.80536 7.00301 7.3579 7.88141C7.12324 8.34275 6.9899 8.90275 6.92057 9.75208C6.87657 10.2854 6.86057 10.9081 6.8539 11.6667L6.8499 12.0001H26.8499L26.8459 11.6667ZM26.5166 13.6667H7.18324V18.8001C7.18324 20.3107 7.18324 21.3827 7.25257 22.2214C7.31924 23.0481 7.44857 23.5614 7.65524 23.9681C8.07065 24.7832 8.73341 25.446 9.54857 25.8614C9.95524 26.0681 10.4686 26.1961 11.2952 26.2641C12.1352 26.3321 13.2059 26.3334 14.7166 26.3334H18.9832C20.4939 26.3334 21.5659 26.3334 22.4046 26.2641C23.2312 26.1974 23.7446 26.0681 24.1512 25.8614C24.9664 25.446 25.6292 24.7832 26.0446 23.9681C26.2512 23.5614 26.3792 23.0481 26.4472 22.2214C26.5152 21.3814 26.5166 20.3094 26.5166 18.8001V13.6667ZM14.6859 4.00008H19.0139C20.4806 4.00008 21.6246 4.00008 22.5406 4.07475C23.4712 4.15075 24.2272 4.30808 24.9072 4.65341C26.0365 5.22871 26.9546 6.14681 27.5299 7.27608C27.8766 7.95608 28.0326 8.71208 28.1086 9.64275C28.1832 10.5587 28.1832 11.7014 28.1832 13.1694V18.8307C28.1832 20.2974 28.1832 21.4414 28.1086 22.3574C28.0326 23.2881 27.8752 24.0441 27.5299 24.7241C26.9546 25.8534 26.0365 26.7715 24.9072 27.3467C24.2272 27.6934 23.4712 27.8494 22.5406 27.9254C21.6246 28.0001 20.4819 28.0001 19.0139 28.0001H14.6859C13.2192 28.0001 12.0752 28.0001 11.1592 27.9254C10.2286 27.8494 9.47257 27.6921 8.79257 27.3467C7.6633 26.7715 6.74519 25.8534 6.1699 24.7241C5.82324 24.0441 5.66724 23.2881 5.59124 22.3574C5.51657 21.4414 5.51657 20.2987 5.51657 18.8307V13.1694C5.51657 11.7027 5.51657 10.5587 5.59124 9.64275C5.66724 8.71208 5.82457 7.95608 6.1699 7.27608C6.74519 6.14681 7.6633 5.22871 8.79257 4.65341C9.47257 4.30675 10.2286 4.15075 11.1592 4.07475C12.0766 4.00008 13.2179 4.00008 14.6859 4.00008ZM6.8499 13.3334V18.8001C6.8499 20.3041 6.8499 21.3934 6.92057 22.2481C6.9899 23.0974 7.12324 23.6574 7.3579 24.1187C7.80536 24.9972 8.5195 25.7113 9.3979 26.1587C9.85923 26.3934 10.4192 26.5267 11.2686 26.5961C12.1232 26.6667 13.2126 26.6667 14.7166 26.6667H18.9832C20.4872 26.6667 21.5766 26.6667 22.4312 26.5961C23.2806 26.5267 23.8406 26.3934 24.3019 26.1587C25.1803 25.7113 25.8944 24.9972 26.3419 24.1187C26.5766 23.6574 26.7099 23.0974 26.7792 22.2494C26.8499 21.3934 26.8499 20.3041 26.8499 18.8001V13.3334H6.8499ZM12.1832 8.66675C12.1832 8.48994 12.2535 8.32037 12.3785 8.19534C12.5035 8.07032 12.6731 8.00008 12.8499 8.00008H20.8499C21.0267 8.00008 21.1963 8.07032 21.3213 8.19534C21.4463 8.32037 21.5166 8.48994 21.5166 8.66675C21.5166 8.84356 21.4463 9.01313 21.3213 9.13815C21.1963 9.26318 21.0267 9.33342 20.8499 9.33342H12.8499C12.6731 9.33342 12.5035 9.26318 12.3785 9.13815C12.2535 9.01313 12.1832 8.84356 12.1832 8.66675ZM11.5166 16.0001C11.1629 16.0001 10.8238 16.1406 10.5738 16.3906C10.3237 16.6407 10.1832 16.9798 10.1832 17.3334C10.1832 17.687 10.3237 18.0262 10.5738 18.2762C10.8238 18.5263 11.1629 18.6667 11.5166 18.6667C11.8702 18.6667 12.2093 18.5263 12.4594 18.2762C12.7094 18.0262 12.8499 17.687 12.8499 17.3334C12.8499 16.9798 12.7094 16.6407 12.4594 16.3906C12.2093 16.1406 11.8702 16.0001 11.5166 16.0001ZM20.8499 17.3334C20.8499 16.9798 20.9904 16.6407 21.2404 16.3906C21.4905 16.1406 21.8296 16.0001 22.1832 16.0001C22.5369 16.0001 22.876 16.1406 23.126 16.3906C23.3761 16.6407 23.5166 16.9798 23.5166 17.3334C23.5166 17.687 23.3761 18.0262 23.126 18.2762C22.876 18.5263 22.5369 18.6667 22.1832 18.6667C21.8296 18.6667 21.4905 18.5263 21.2404 18.2762C20.9904 18.0262 20.8499 17.687 20.8499 17.3334ZM15.5166 17.3334C15.5166 16.9798 15.657 16.6407 15.9071 16.3906C16.1571 16.1406 16.4963 16.0001 16.8499 16.0001C17.2035 16.0001 17.5427 16.1406 17.7927 16.3906C18.0428 16.6407 18.1832 16.9798 18.1832 17.3334C18.1832 17.687 18.0428 18.0262 17.7927 18.2762C17.5427 18.5263 17.2035 18.6667 16.8499 18.6667C16.4963 18.6667 16.1571 18.5263 15.9071 18.2762C15.657 18.0262 15.5166 17.687 15.5166 17.3334ZM10.1832 22.6667C10.1832 22.3131 10.3237 21.974 10.5738 21.7239C10.8238 21.4739 11.1629 21.3334 11.5166 21.3334C11.8702 21.3334 12.2093 21.4739 12.4594 21.7239C12.7094 21.974 12.8499 22.3131 12.8499 22.6667C12.8499 23.0204 12.7094 23.3595 12.4594 23.6096C12.2093 23.8596 11.8702 24.0001 11.5166 24.0001C11.1629 24.0001 10.8238 23.8596 10.5738 23.6096C10.3237 23.3595 10.1832 23.0204 10.1832 22.6667ZM15.5166 22.6667C15.5166 22.3131 15.657 21.974 15.9071 21.7239C16.1571 21.4739 16.4963 21.3334 16.8499 21.3334C17.2035 21.3334 17.5427 21.4739 17.7927 21.7239C18.0428 21.974 18.1832 22.3131 18.1832 22.6667C18.1832 23.0204 18.0428 23.3595 17.7927 23.6096C17.5427 23.8596 17.2035 24.0001 16.8499 24.0001C16.4963 24.0001 16.1571 23.8596 15.9071 23.6096C15.657 23.3595 15.5166 23.0204 15.5166 22.6667Z" fill="white"/>
</svg>
