<svg width="33" height="32" viewBox="0 0 33 32" fill="none" xmlns="http://www.w3.org/2000/svg">
<path d="M11.9832 8.66667C11.9832 8.48986 12.0535 8.32029 12.1785 8.19526C12.3035 8.07024 12.4731 8 12.6499 8H20.6499C20.8267 8 20.9963 8.07024 21.1213 8.19526C21.2463 8.32029 21.3166 8.48986 21.3166 8.66667C21.3166 8.84348 21.2463 9.01305 21.1213 9.13807C20.9963 9.2631 20.8267 9.33333 20.6499 9.33333H12.6499C12.4731 9.33333 12.3035 9.2631 12.1785 9.13807C12.0535 9.01305 11.9832 8.84348 11.9832 8.66667ZM11.3166 16C10.9629 16 10.6238 16.1405 10.3738 16.3905C10.1237 16.6406 9.98324 16.9797 9.98324 17.3333C9.98324 17.687 10.1237 18.0261 10.3738 18.2761C10.6238 18.5262 10.9629 18.6667 11.3166 18.6667C11.6702 18.6667 12.0093 18.5262 12.2594 18.2761C12.5094 18.0261 12.6499 17.687 12.6499 17.3333C12.6499 16.9797 12.5094 16.6406 12.2594 16.3905C12.0093 16.1405 11.6702 16 11.3166 16ZM21.9832 16C21.6296 16 21.2905 16.1405 21.0404 16.3905C20.7904 16.6406 20.6499 16.9797 20.6499 17.3333C20.6499 17.687 20.7904 18.0261 21.0404 18.2761C21.2905 18.5262 21.6296 18.6667 21.9832 18.6667C22.3369 18.6667 22.676 18.5262 22.926 18.2761C23.1761 18.0261 23.3166 17.687 23.3166 17.3333C23.3166 16.9797 23.1761 16.6406 22.926 16.3905C22.676 16.1405 22.3369 16 21.9832 16ZM15.3166 17.3333C15.3166 16.9797 15.457 16.6406 15.7071 16.3905C15.9571 16.1405 16.2963 16 16.6499 16C17.0035 16 17.3427 16.1405 17.5927 16.3905C17.8428 16.6406 17.9832 16.9797 17.9832 17.3333C17.9832 17.687 17.8428 18.0261 17.5927 18.2761C17.3427 18.5262 17.0035 18.6667 16.6499 18.6667C16.2963 18.6667 15.9571 18.5262 15.7071 18.2761C15.457 18.0261 15.3166 17.687 15.3166 17.3333ZM11.3166 21.3333C10.9629 21.3333 10.6238 21.4738 10.3738 21.7239C10.1237 21.9739 9.98324 22.313 9.98324 22.6667C9.98324 23.0203 10.1237 23.3594 10.3738 23.6095C10.6238 23.8595 10.9629 24 11.3166 24C11.6702 24 12.0093 23.8595 12.2594 23.6095C12.5094 23.3594 12.6499 23.0203 12.6499 22.6667C12.6499 22.313 12.5094 21.9739 12.2594 21.7239C12.0093 21.4738 11.6702 21.3333 11.3166 21.3333ZM15.3166 22.6667C15.3166 22.313 15.457 21.9739 15.7071 21.7239C15.9571 21.4738 16.2963 21.3333 16.6499 21.3333C17.0035 21.3333 17.3427 21.4738 17.5927 21.7239C17.8428 21.9739 17.9832 22.313 17.9832 22.6667C17.9832 23.0203 17.8428 23.3594 17.5927 23.6095C17.3427 23.8595 17.0035 24 16.6499 24C16.2963 24 15.9571 23.8595 15.7071 23.6095C15.457 23.3594 15.3166 23.0203 15.3166 22.6667Z" fill="#0600B0"/>
<path d="M18.8139 4H14.4859C13.0192 4 11.8752 4 10.9592 4.07467C10.0286 4.15067 9.27257 4.308 8.59257 4.65333C7.46329 5.22863 6.54519 6.14673 5.9699 7.276C5.62323 7.956 5.46723 8.712 5.39123 9.64267C5.31657 10.56 5.31657 11.7013 5.31657 13.1693V18.8307C5.31657 20.2973 5.31657 21.4413 5.39123 22.3573C5.46723 23.288 5.62457 24.044 5.9699 24.724C6.54519 25.8533 7.46329 26.7714 8.59257 27.3467C9.27257 27.6933 10.0286 27.8493 10.9592 27.9253C11.8766 28 13.0179 28 14.4859 28H18.8139C20.2806 28 21.4246 28 22.3406 27.9253C23.2712 27.8493 24.0272 27.692 24.7072 27.3467C25.8365 26.7714 26.7546 25.8533 27.3299 24.724C27.6766 24.044 27.8326 23.288 27.9086 22.3573C27.9832 21.4413 27.9832 20.2987 27.9832 18.8307V13.1693C27.9832 11.7027 27.9832 10.5587 27.9086 9.64267C27.8326 8.712 27.6752 7.956 27.3299 7.276C26.7546 6.14673 25.8365 5.22863 24.7072 4.65333C24.0272 4.30667 23.2712 4.15067 22.3406 4.07467C21.4232 4 20.2819 4 18.8139 4ZM9.19657 5.84133C9.6579 5.60667 10.2179 5.47333 11.0672 5.404C11.9232 5.33333 13.0126 5.33333 14.5166 5.33333H18.7832C20.2872 5.33333 21.3766 5.33333 22.2312 5.404C23.0806 5.47333 23.6406 5.60667 24.1019 5.84133C24.9803 6.2888 25.6944 7.00293 26.1419 7.88133C26.3766 8.34267 26.5099 8.90267 26.5792 9.752C26.6299 10.3613 26.6446 11.088 26.6486 12H6.6499C6.65523 11.088 6.66857 10.36 6.71923 9.752C6.78857 8.90267 6.9219 8.34267 7.15657 7.88133C7.60403 7.00293 8.31817 6.2888 9.19657 5.84133ZM6.6499 13.3333H26.6499V18.8C26.6499 20.304 26.6499 21.3933 26.5792 22.248C26.5099 23.0973 26.3766 23.6573 26.1419 24.1187C25.6944 24.9971 24.9803 25.7112 24.1019 26.1587C23.6406 26.3933 23.0806 26.5267 22.2326 26.596C21.3766 26.6667 20.2872 26.6667 18.7832 26.6667H14.5166C13.0126 26.6667 11.9232 26.6667 11.0686 26.596C10.2192 26.5267 9.65923 26.3933 9.1979 26.1587C8.3195 25.7112 7.60536 24.9971 7.1579 24.1187C6.92323 23.6573 6.7899 23.0973 6.72057 22.2493C6.6499 21.3933 6.6499 20.304 6.6499 18.8V13.3333Z" fill="#0600B0"/>
<path fill-rule="evenodd" clip-rule="evenodd" d="M11.6499 8.66675C11.6499 8.40153 11.7553 8.14718 11.9428 7.95964C12.1303 7.7721 12.3847 7.66675 12.6499 7.66675H20.6499C20.9151 7.66675 21.1695 7.7721 21.357 7.95964C21.5445 8.14718 21.6499 8.40153 21.6499 8.66675C21.6499 8.93196 21.5445 9.18632 21.357 9.37386C21.1695 9.56139 20.9151 9.66675 20.6499 9.66675H12.6499C12.3847 9.66675 12.1303 9.56139 11.9428 9.37386C11.7553 9.18632 11.6499 8.93196 11.6499 8.66675ZM9.6499 17.3334C9.6499 16.8914 9.8255 16.4675 10.1381 16.1549C10.4506 15.8423 10.8745 15.6667 11.3166 15.6667C11.7586 15.6667 12.1825 15.8423 12.4951 16.1549C12.8076 16.4675 12.9832 16.8914 12.9832 17.3334C12.9832 17.7754 12.8076 18.1994 12.4951 18.5119C12.1825 18.8245 11.7586 19.0001 11.3166 19.0001C10.8745 19.0001 10.4506 18.8245 10.1381 18.5119C9.8255 18.1994 9.6499 17.7754 9.6499 17.3334ZM20.3166 17.3334C20.3166 16.8914 20.4922 16.4675 20.8047 16.1549C21.1173 15.8423 21.5412 15.6667 21.9832 15.6667C22.4253 15.6667 22.8492 15.8423 23.1617 16.1549C23.4743 16.4675 23.6499 16.8914 23.6499 17.3334C23.6499 17.7754 23.4743 18.1994 23.1617 18.5119C22.8492 18.8245 22.4253 19.0001 21.9832 19.0001C21.5412 19.0001 21.1173 18.8245 20.8047 18.5119C20.4922 18.1994 20.3166 17.7754 20.3166 17.3334ZM14.9832 17.3334C14.9832 16.8914 15.1588 16.4675 15.4714 16.1549C15.784 15.8423 16.2079 15.6667 16.6499 15.6667C17.0919 15.6667 17.5159 15.8423 17.8284 16.1549C18.141 16.4675 18.3166 16.8914 18.3166 17.3334C18.3166 17.7754 18.141 18.1994 17.8284 18.5119C17.5159 18.8245 17.0919 19.0001 16.6499 19.0001C16.2079 19.0001 15.784 18.8245 15.4714 18.5119C15.1588 18.1994 14.9832 17.7754 14.9832 17.3334ZM9.6499 22.6667C9.6499 22.2247 9.8255 21.8008 10.1381 21.4882C10.4506 21.1757 10.8745 21.0001 11.3166 21.0001C11.7586 21.0001 12.1825 21.1757 12.4951 21.4882C12.8076 21.8008 12.9832 22.2247 12.9832 22.6667C12.9832 23.1088 12.8076 23.5327 12.4951 23.8453C12.1825 24.1578 11.7586 24.3334 11.3166 24.3334C10.8745 24.3334 10.4506 24.1578 10.1381 23.8453C9.8255 23.5327 9.6499 23.1088 9.6499 22.6667ZM14.9832 22.6667C14.9832 22.2247 15.1588 21.8008 15.4714 21.4882C15.784 21.1757 16.2079 21.0001 16.6499 21.0001C17.0919 21.0001 17.5159 21.1757 17.8284 21.4882C18.141 21.8008 18.3166 22.2247 18.3166 22.6667C18.3166 23.1088 18.141 23.5327 17.8284 23.8453C17.5159 24.1578 17.0919 24.3334 16.6499 24.3334C16.2079 24.3334 15.784 24.1578 15.4714 23.8453C15.1588 23.5327 14.9832 23.1088 14.9832 22.6667ZM18.8286 3.66675C20.2832 3.66675 21.4379 3.66675 22.3672 3.74275C23.3192 3.82008 24.1232 3.98275 24.8592 4.35608C26.0508 4.96387 27.0193 5.93331 27.6259 7.12541C28.0006 7.85875 28.1632 8.66408 28.2406 9.61608C28.3166 10.5454 28.3166 11.7001 28.3166 13.1547V18.8454C28.3166 20.3001 28.3166 21.4547 28.2406 22.3841C28.1632 23.3361 28.0006 24.1401 27.6272 24.8761C27.0198 26.0674 26.0508 27.0359 24.8592 27.6427C24.1232 28.0174 23.3192 28.1801 22.3672 28.2574C21.4379 28.3334 20.2832 28.3334 18.8286 28.3334H14.4712C13.0166 28.3334 11.8619 28.3334 10.9326 28.2574C9.98057 28.1801 9.17657 28.0174 8.4419 27.6441C7.25009 27.0369 6.28112 26.0679 5.6739 24.8761C5.29924 24.1401 5.13657 23.3361 5.05924 22.3841C4.98324 21.4547 4.98324 20.3001 4.98324 18.8454V13.1547C4.98324 11.7001 4.98324 10.5454 5.05924 9.61608C5.13657 8.66408 5.29924 7.86008 5.67257 7.12541C6.28014 5.9334 7.24959 4.96441 8.4419 4.35741C9.17524 3.98275 9.98057 3.82008 10.9326 3.74275C11.8619 3.66675 13.0166 3.66675 14.4726 3.66675H18.8286ZM11.0952 5.73608C10.2686 5.80275 9.75524 5.93208 9.34857 6.13875C8.53341 6.55416 7.87065 7.21692 7.45524 8.03208C7.24857 8.43875 7.12057 8.95208 7.05257 9.77875C7.0099 10.2987 6.9939 10.9121 6.9859 11.6667H26.3126C26.3131 11.0368 26.2913 10.4071 26.2472 9.77875C26.1806 8.95208 26.0512 8.43875 25.8446 8.03208C25.4292 7.21692 24.7664 6.55416 23.9512 6.13875C23.5446 5.93208 23.0312 5.80408 22.2046 5.73608C21.3646 5.66808 20.2926 5.66675 18.7832 5.66675H14.5166C13.0059 5.66675 11.9339 5.66675 11.0952 5.73608ZM26.6459 11.6667C26.6466 11.0279 26.6244 10.3893 26.5792 9.75208C26.5099 8.90275 26.3766 8.34275 26.1419 7.88141C25.6944 7.00301 24.9803 6.28888 24.1019 5.84141C23.6406 5.60675 23.0806 5.47341 22.2326 5.40408C21.3766 5.33341 20.2872 5.33341 18.7832 5.33341H14.5166C13.0126 5.33341 11.9232 5.33341 11.0686 5.40408C10.2192 5.47341 9.65924 5.60675 9.1979 5.84141C8.3195 6.28888 7.60537 7.00301 7.1579 7.88141C6.92324 8.34275 6.7899 8.90275 6.72057 9.75208C6.67657 10.2854 6.66057 10.9081 6.6539 11.6667L6.6499 12.0001H26.6499L26.6459 11.6667ZM26.3166 13.6667H6.98324V18.8001C6.98324 20.3107 6.98324 21.3827 7.05257 22.2214C7.11924 23.0481 7.24857 23.5614 7.45524 23.9681C7.87065 24.7832 8.53341 25.446 9.34857 25.8614C9.75524 26.0681 10.2686 26.1961 11.0952 26.2641C11.9352 26.3321 13.0059 26.3334 14.5166 26.3334H18.7832C20.2939 26.3334 21.3659 26.3334 22.2046 26.2641C23.0312 26.1974 23.5446 26.0681 23.9512 25.8614C24.7664 25.446 25.4292 24.7832 25.8446 23.9681C26.0512 23.5614 26.1792 23.0481 26.2472 22.2214C26.3152 21.3814 26.3166 20.3094 26.3166 18.8001V13.6667ZM14.4859 4.00008H18.8139C20.2806 4.00008 21.4246 4.00008 22.3406 4.07475C23.2712 4.15075 24.0272 4.30808 24.7072 4.65341C25.8365 5.22871 26.7546 6.14681 27.3299 7.27608C27.6766 7.95608 27.8326 8.71208 27.9086 9.64275C27.9832 10.5587 27.9832 11.7014 27.9832 13.1694V18.8307C27.9832 20.2974 27.9832 21.4414 27.9086 22.3574C27.8326 23.2881 27.6752 24.0441 27.3299 24.7241C26.7546 25.8534 25.8365 26.7715 24.7072 27.3467C24.0272 27.6934 23.2712 27.8494 22.3406 27.9254C21.4246 28.0001 20.2819 28.0001 18.8139 28.0001H14.4859C13.0192 28.0001 11.8752 28.0001 10.9592 27.9254C10.0286 27.8494 9.27257 27.6921 8.59257 27.3467C7.4633 26.7715 6.5452 25.8534 5.9699 24.7241C5.62324 24.0441 5.46724 23.2881 5.39124 22.3574C5.31657 21.4414 5.31657 20.2987 5.31657 18.8307V13.1694C5.31657 11.7027 5.31657 10.5587 5.39124 9.64275C5.46724 8.71208 5.62457 7.95608 5.9699 7.27608C6.5452 6.14681 7.4633 5.22871 8.59257 4.65341C9.27257 4.30675 10.0286 4.15075 10.9592 4.07475C11.8766 4.00008 13.0179 4.00008 14.4859 4.00008ZM6.6499 13.3334V18.8001C6.6499 20.3041 6.6499 21.3934 6.72057 22.2481C6.7899 23.0974 6.92324 23.6574 7.1579 24.1187C7.60537 24.9972 8.3195 25.7113 9.1979 26.1587C9.65924 26.3934 10.2192 26.5267 11.0686 26.5961C11.9232 26.6667 13.0126 26.6667 14.5166 26.6667H18.7832C20.2872 26.6667 21.3766 26.6667 22.2312 26.5961C23.0806 26.5267 23.6406 26.3934 24.1019 26.1587C24.9803 25.7113 25.6944 24.9972 26.1419 24.1187C26.3766 23.6574 26.5099 23.0974 26.5792 22.2494C26.6499 21.3934 26.6499 20.3041 26.6499 18.8001V13.3334H6.6499ZM11.9832 8.66675C11.9832 8.48994 12.0535 8.32037 12.1785 8.19534C12.3035 8.07032 12.4731 8.00008 12.6499 8.00008H20.6499C20.8267 8.00008 20.9963 8.07032 21.1213 8.19534C21.2463 8.32037 21.3166 8.48994 21.3166 8.66675C21.3166 8.84356 21.2463 9.01313 21.1213 9.13815C20.9963 9.26318 20.8267 9.33342 20.6499 9.33342H12.6499C12.4731 9.33342 12.3035 9.26318 12.1785 9.13815C12.0535 9.01313 11.9832 8.84356 11.9832 8.66675ZM11.3166 16.0001C10.9629 16.0001 10.6238 16.1406 10.3738 16.3906C10.1237 16.6407 9.98324 16.9798 9.98324 17.3334C9.98324 17.687 10.1237 18.0262 10.3738 18.2762C10.6238 18.5263 10.9629 18.6667 11.3166 18.6667C11.6702 18.6667 12.0093 18.5263 12.2594 18.2762C12.5094 18.0262 12.6499 17.687 12.6499 17.3334C12.6499 16.9798 12.5094 16.6407 12.2594 16.3906C12.0093 16.1406 11.6702 16.0001 11.3166 16.0001ZM20.6499 17.3334C20.6499 16.9798 20.7904 16.6407 21.0404 16.3906C21.2905 16.1406 21.6296 16.0001 21.9832 16.0001C22.3369 16.0001 22.676 16.1406 22.926 16.3906C23.1761 16.6407 23.3166 16.9798 23.3166 17.3334C23.3166 17.687 23.1761 18.0262 22.926 18.2762C22.676 18.5263 22.3369 18.6667 21.9832 18.6667C21.6296 18.6667 21.2905 18.5263 21.0404 18.2762C20.7904 18.0262 20.6499 17.687 20.6499 17.3334ZM15.3166 17.3334C15.3166 16.9798 15.457 16.6407 15.7071 16.3906C15.9571 16.1406 16.2963 16.0001 16.6499 16.0001C17.0035 16.0001 17.3427 16.1406 17.5927 16.3906C17.8428 16.6407 17.9832 16.9798 17.9832 17.3334C17.9832 17.687 17.8428 18.0262 17.5927 18.2762C17.3427 18.5263 17.0035 18.6667 16.6499 18.6667C16.2963 18.6667 15.9571 18.5263 15.7071 18.2762C15.457 18.0262 15.3166 17.687 15.3166 17.3334ZM9.98324 22.6667C9.98324 22.3131 10.1237 21.974 10.3738 21.7239C10.6238 21.4739 10.9629 21.3334 11.3166 21.3334C11.6702 21.3334 12.0093 21.4739 12.2594 21.7239C12.5094 21.974 12.6499 22.3131 12.6499 22.6667C12.6499 23.0204 12.5094 23.3595 12.2594 23.6096C12.0093 23.8596 11.6702 24.0001 11.3166 24.0001C10.9629 24.0001 10.6238 23.8596 10.3738 23.6096C10.1237 23.3595 9.98324 23.0204 9.98324 22.6667ZM15.3166 22.6667C15.3166 22.3131 15.457 21.974 15.7071 21.7239C15.9571 21.4739 16.2963 21.3334 16.6499 21.3334C17.0035 21.3334 17.3427 21.4739 17.5927 21.7239C17.8428 21.974 17.9832 22.3131 17.9832 22.6667C17.9832 23.0204 17.8428 23.3595 17.5927 23.6096C17.3427 23.8596 17.0035 24.0001 16.6499 24.0001C16.2963 24.0001 15.9571 23.8596 15.7071 23.6096C15.457 23.3595 15.3166 23.0204 15.3166 22.6667Z" fill="#0600B0"/>
</svg>
