<svg width="22" height="24" viewBox="0 0 22 24" fill="none" xmlns="http://www.w3.org/2000/svg">
<path d="M3.25 21.3334H7.25V14.6667C7.25 14.289 7.378 13.9725 7.634 13.7174C7.89 13.4623 8.20644 13.3343 8.58333 13.3334H13.9167C14.2944 13.3334 14.6113 13.4614 14.8673 13.7174C15.1233 13.9734 15.2509 14.2899 15.25 14.6667V21.3334H19.25V9.33342L11.25 3.33341L3.25 9.33342V21.3334ZM0.583332 21.3334V9.33342C0.583332 8.91119 0.677998 8.51119 0.867332 8.13342C1.05667 7.75564 1.31755 7.44453 1.65 7.20008L9.65 1.20008C10.1167 0.844526 10.65 0.666748 11.25 0.666748C11.85 0.666748 12.3833 0.844526 12.85 1.20008L20.85 7.20008C21.1833 7.44453 21.4447 7.75564 21.634 8.13342C21.8233 8.51119 21.9176 8.91119 21.9167 9.33342V21.3334C21.9167 22.0667 21.6553 22.6947 21.1327 23.2174C20.61 23.7401 19.9824 24.001 19.25 24.0001H13.9167C13.5389 24.0001 13.2224 23.8721 12.9673 23.6161C12.7122 23.3601 12.5842 23.0436 12.5833 22.6667V16.0001H9.91667V22.6667C9.91667 23.0445 9.78867 23.3614 9.53267 23.6174C9.27667 23.8734 8.96022 24.001 8.58333 24.0001H3.25C2.51667 24.0001 1.88911 23.7392 1.36733 23.2174C0.845554 22.6956 0.584221 22.0676 0.583332 21.3334Z" fill="white"/>
</svg>
