<svg width="23" height="24" viewBox="0 0 23 24" fill="none" xmlns="http://www.w3.org/2000/svg">
<path d="M3.65 21.3334H7.65V14.6667C7.65 14.289 7.778 13.9725 8.034 13.7174C8.29 13.4623 8.60644 13.3343 8.98333 13.3334H14.3167C14.6944 13.3334 15.0113 13.4614 15.2673 13.7174C15.5233 13.9734 15.6509 14.2899 15.65 14.6667V21.3334H19.65V9.33342L11.65 3.33341L3.65 9.33342V21.3334ZM0.983334 21.3334V9.33342C0.983334 8.91119 1.078 8.51119 1.26733 8.13342C1.45667 7.75564 1.71756 7.44453 2.05 7.20008L10.05 1.20008C10.5167 0.844526 11.05 0.666748 11.65 0.666748C12.25 0.666748 12.7833 0.844526 13.25 1.20008L21.25 7.20008C21.5833 7.44453 21.8447 7.75564 22.034 8.13342C22.2233 8.51119 22.3176 8.91119 22.3167 9.33342V21.3334C22.3167 22.0667 22.0553 22.6947 21.5327 23.2174C21.01 23.7401 20.3824 24.001 19.65 24.0001H14.3167C13.9389 24.0001 13.6224 23.8721 13.3673 23.6161C13.1122 23.3601 12.9842 23.0436 12.9833 22.6667V16.0001H10.3167V22.6667C10.3167 23.0445 10.1887 23.3614 9.93267 23.6174C9.67667 23.8734 9.36022 24.001 8.98333 24.0001H3.65C2.91667 24.0001 2.28911 23.7392 1.76733 23.2174C1.24556 22.6956 0.984222 22.0676 0.983334 21.3334Z" fill="#0600B0"/>
</svg>
